<mxfile host="app.diagrams.net" modified="2024-04-23T06:48:16.363Z" agent="Mozilla/5.0 (Windows NT 10.0; Win64; x64) AppleWebKit/537.36 (KHTML, like Gecko) Chrome/123.0.0.0 Safari/537.36" etag="t0v-FvkM1Sbyx9rwemau" version="24.2.8" type="github">
  <diagram name="第 1 页" id="CkrUklYfRMqP1ryB5BSt">
    <mxGraphModel dx="1221" dy="1787" grid="1" gridSize="10" guides="1" tooltips="1" connect="1" arrows="1" fold="1" page="1" pageScale="1" pageWidth="827" pageHeight="1169" math="0" shadow="0">
      <root>
        <mxCell id="0" />
        <mxCell id="1" parent="0" />
        <mxCell id="aauOoMuS4E9Wpn1Q2ctD-12" style="edgeStyle=orthogonalEdgeStyle;rounded=0;orthogonalLoop=1;jettySize=auto;html=1;" parent="1" source="aauOoMuS4E9Wpn1Q2ctD-4" target="aauOoMuS4E9Wpn1Q2ctD-5" edge="1">
          <mxGeometry relative="1" as="geometry" />
        </mxCell>
        <mxCell id="aauOoMuS4E9Wpn1Q2ctD-4" value="" style="shape=actor;whiteSpace=wrap;html=1;fontSize=12;" parent="1" vertex="1">
          <mxGeometry x="330" y="40" width="60" height="80" as="geometry" />
        </mxCell>
        <mxCell id="aauOoMuS4E9Wpn1Q2ctD-10" value="" style="edgeStyle=orthogonalEdgeStyle;rounded=0;orthogonalLoop=1;jettySize=auto;html=1;" parent="1" source="aauOoMuS4E9Wpn1Q2ctD-5" target="aauOoMuS4E9Wpn1Q2ctD-9" edge="1">
          <mxGeometry relative="1" as="geometry" />
        </mxCell>
        <mxCell id="aauOoMuS4E9Wpn1Q2ctD-16" style="edgeStyle=orthogonalEdgeStyle;rounded=0;orthogonalLoop=1;jettySize=auto;html=1;entryX=0;entryY=0.5;entryDx=0;entryDy=0;exitX=0.5;exitY=1;exitDx=0;exitDy=0;" parent="1" source="aauOoMuS4E9Wpn1Q2ctD-5" target="aauOoMuS4E9Wpn1Q2ctD-17" edge="1">
          <mxGeometry relative="1" as="geometry">
            <mxPoint x="140" y="400" as="targetPoint" />
          </mxGeometry>
        </mxCell>
        <mxCell id="aauOoMuS4E9Wpn1Q2ctD-5" value="&lt;b&gt;&lt;font style=&quot;font-size: 18px;&quot;&gt;Controller&lt;/font&gt;&lt;/b&gt;" style="whiteSpace=wrap;html=1;" parent="1" vertex="1">
          <mxGeometry x="80" y="200" width="120" height="60" as="geometry" />
        </mxCell>
        <mxCell id="aauOoMuS4E9Wpn1Q2ctD-7" value="User" style="text;html=1;align=center;verticalAlign=middle;resizable=0;points=[];autosize=1;strokeColor=none;fillColor=none;fontSize=13;fontStyle=1" parent="1" vertex="1">
          <mxGeometry x="335" y="120" width="50" height="30" as="geometry" />
        </mxCell>
        <mxCell id="aauOoMuS4E9Wpn1Q2ctD-9" value="&lt;b style=&quot;font-size: 18px;&quot;&gt;View&lt;/b&gt;" style="whiteSpace=wrap;html=1;fontSize=18;" parent="1" vertex="1">
          <mxGeometry x="520" y="200" width="120" height="60" as="geometry" />
        </mxCell>
        <mxCell id="aauOoMuS4E9Wpn1Q2ctD-11" style="edgeStyle=orthogonalEdgeStyle;rounded=0;orthogonalLoop=1;jettySize=auto;html=1;exitX=0.5;exitY=0;exitDx=0;exitDy=0;entryX=0.9;entryY=0.5;entryDx=0;entryDy=0;entryPerimeter=0;" parent="1" source="aauOoMuS4E9Wpn1Q2ctD-9" target="aauOoMuS4E9Wpn1Q2ctD-4" edge="1">
          <mxGeometry relative="1" as="geometry">
            <mxPoint x="410" y="80" as="targetPoint" />
            <Array as="points">
              <mxPoint x="580" y="80" />
            </Array>
          </mxGeometry>
        </mxCell>
        <mxCell id="aauOoMuS4E9Wpn1Q2ctD-13" value="输入" style="text;html=1;align=center;verticalAlign=middle;resizable=0;points=[];autosize=1;fontSize=13;fontStyle=1;" parent="1" vertex="1">
          <mxGeometry x="210" y="50" width="50" height="30" as="geometry" />
        </mxCell>
        <mxCell id="aauOoMuS4E9Wpn1Q2ctD-14" value="展示信息" style="text;html=1;align=center;verticalAlign=middle;resizable=0;points=[];autosize=1;fontSize=13;fontStyle=1;" parent="1" vertex="1">
          <mxGeometry x="480" y="50" width="80" height="30" as="geometry" />
        </mxCell>
        <mxCell id="aauOoMuS4E9Wpn1Q2ctD-15" value="响应&lt;div style=&quot;font-size: 13px;&quot;&gt;用户信息&lt;/div&gt;" style="text;html=1;align=center;verticalAlign=middle;resizable=0;points=[];autosize=1;fontSize=13;fontStyle=1;perimeterSpacing=0;strokeColor=none;fillColor=none;" parent="1" vertex="1">
          <mxGeometry x="320" y="190" width="80" height="40" as="geometry" />
        </mxCell>
        <mxCell id="aauOoMuS4E9Wpn1Q2ctD-18" style="edgeStyle=orthogonalEdgeStyle;rounded=0;orthogonalLoop=1;jettySize=auto;html=1;entryX=0.5;entryY=1;entryDx=0;entryDy=0;" parent="1" source="aauOoMuS4E9Wpn1Q2ctD-17" target="aauOoMuS4E9Wpn1Q2ctD-9" edge="1">
          <mxGeometry relative="1" as="geometry" />
        </mxCell>
        <mxCell id="aauOoMuS4E9Wpn1Q2ctD-25" value="" style="edgeStyle=orthogonalEdgeStyle;rounded=0;orthogonalLoop=1;jettySize=auto;html=1;exitX=0.336;exitY=1.033;exitDx=0;exitDy=0;exitPerimeter=0;entryX=0.333;entryY=0;entryDx=0;entryDy=0;entryPerimeter=0;" parent="1" source="aauOoMuS4E9Wpn1Q2ctD-17" target="aauOoMuS4E9Wpn1Q2ctD-21" edge="1">
          <mxGeometry relative="1" as="geometry">
            <mxPoint x="340" y="420" as="sourcePoint" />
          </mxGeometry>
        </mxCell>
        <mxCell id="aauOoMuS4E9Wpn1Q2ctD-17" value="&lt;font style=&quot;font-size: 18px;&quot;&gt;&lt;b&gt;Mode&lt;/b&gt;&lt;/font&gt;" style="rounded=0;whiteSpace=wrap;html=1;" parent="1" vertex="1">
          <mxGeometry x="300" y="350" width="120" height="60" as="geometry" />
        </mxCell>
        <mxCell id="aauOoMuS4E9Wpn1Q2ctD-19" value="传递指令" style="text;html=1;align=center;verticalAlign=middle;resizable=0;points=[];autosize=1;strokeColor=none;fillColor=none;fontSize=13;fontStyle=1" parent="1" vertex="1">
          <mxGeometry x="180" y="348" width="80" height="30" as="geometry" />
        </mxCell>
        <mxCell id="aauOoMuS4E9Wpn1Q2ctD-20" value="业务数据" style="text;html=1;align=center;verticalAlign=middle;resizable=0;points=[];autosize=1;strokeColor=none;fillColor=none;fontSize=13;fontStyle=1" parent="1" vertex="1">
          <mxGeometry x="460" y="348" width="80" height="30" as="geometry" />
        </mxCell>
        <mxCell id="aauOoMuS4E9Wpn1Q2ctD-26" value="" style="edgeStyle=orthogonalEdgeStyle;rounded=0;orthogonalLoop=1;jettySize=auto;html=1;entryX=0.652;entryY=1.013;entryDx=0;entryDy=0;entryPerimeter=0;exitX=0.648;exitY=-0.018;exitDx=0;exitDy=0;exitPerimeter=0;" parent="1" source="aauOoMuS4E9Wpn1Q2ctD-21" target="aauOoMuS4E9Wpn1Q2ctD-17" edge="1">
          <mxGeometry relative="1" as="geometry" />
        </mxCell>
        <mxCell id="aauOoMuS4E9Wpn1Q2ctD-21" value="&lt;font style=&quot;font-size: 18px;&quot;&gt;&lt;b&gt;DB&lt;/b&gt;&lt;/font&gt;" style="rounded=1;whiteSpace=wrap;html=1;" parent="1" vertex="1">
          <mxGeometry x="300" y="490" width="120" height="60" as="geometry" />
        </mxCell>
        <mxCell id="aauOoMuS4E9Wpn1Q2ctD-29" value="MVC架构" style="text;html=1;align=center;verticalAlign=middle;resizable=0;points=[];autosize=1;strokeColor=none;fillColor=none;fontSize=24;fontStyle=1" parent="1" vertex="1">
          <mxGeometry x="300" y="-40" width="120" height="40" as="geometry" />
        </mxCell>
        <mxCell id="aauOoMuS4E9Wpn1Q2ctD-30" value="&lt;div style=&quot;text-align: justify; font-size: 18px;&quot;&gt;&lt;span style=&quot;background-color: initial;&quot;&gt;&lt;font style=&quot;font-size: 18px;&quot;&gt;&lt;b&gt;1、用户管理：Model层，实现用户注册、用户登录、用户查询&lt;/b&gt;&lt;/font&gt;&lt;/span&gt;&lt;/div&gt;&lt;div style=&quot;text-align: justify; font-size: 18px;&quot;&gt;&lt;font style=&quot;font-size: 18px;&quot;&gt;&lt;b&gt;2、用户操作记录：Model层，实现用户查询，即错误记录&lt;/b&gt;&lt;/font&gt;&lt;/div&gt;&lt;div style=&quot;text-align: justify; font-size: 18px;&quot;&gt;&lt;font style=&quot;font-size: 18px;&quot;&gt;&lt;b&gt;3、地图数据加载显示：View视图，负责页面展示&lt;/b&gt;&lt;/font&gt;&lt;/div&gt;&lt;div style=&quot;text-align: justify; font-size: 18px;&quot;&gt;&lt;font style=&quot;font-size: 18px;&quot;&gt;&lt;b&gt;4、错误记录查询：Model层，&lt;span style=&quot;background-color: initial;&quot;&gt;实现用户查询，即错误记录&lt;/span&gt;&lt;/b&gt;&lt;/font&gt;&lt;/div&gt;" style="text;html=1;align=center;verticalAlign=middle;resizable=0;points=[];autosize=1;strokeColor=none;fillColor=none;" parent="1" vertex="1">
          <mxGeometry x="460" y="440" width="520" height="100" as="geometry" />
        </mxCell>
      </root>
    </mxGraphModel>
  </diagram>
</mxfile>
